<?xml version="1.0" encoding="UTF-8"?>
<svg width="1920" height="800" viewBox="0 0 1920 800" xmlns="http://www.w3.org/2000/svg">
  <!-- Gradiente de fondo -->
  <defs>
    <linearGradient id="bgGradient" x1="0%" y1="0%" x2="100%" y2="100%">
      <stop offset="0%" style="stop-color:#fef3c7;stop-opacity:0.3"/>
      <stop offset="50%" style="stop-color:#fde68a;stop-opacity:0.4"/>
      <stop offset="100%" style="stop-color:#fcd34d;stop-opacity:0.3"/>
    </linearGradient>
  </defs>
  
  <!-- Fondo con gradiente -->
  <rect width="100%" height="100%" fill="url(#bgGradient)"/>
  
  <!-- Patrón de puntos -->
  <g fill="#fbbf24" fill-opacity="0.4">
    <circle cx="100" cy="100" r="2"/>
    <circle cx="300" cy="200" r="2"/>
    <circle cx="500" cy="150" r="2"/>
    <circle cx="700" cy="250" r="2"/>
    <circle cx="900" cy="180" r="2"/>
    <circle cx="1100" cy="220" r="2"/>
    <circle cx="1300" cy="170" r="2"/>
    <circle cx="1500" cy="230" r="2"/>
    <circle cx="1700" cy="190" r="2"/>
    <circle cx="1900" cy="240" r="2"/>
  </g>
  
  <!-- Líneas de conexión -->
  <g stroke="#fbbf24" stroke-width="0.5" stroke-opacity="0.3">
    <line x1="100" y1="100" x2="300" y2="200"/>
    <line x1="300" y1="200" x2="500" y2="150"/>
    <line x1="500" y1="150" x2="700" y2="250"/>
    <line x1="700" y1="250" x2="900" y2="180"/>
    <line x1="900" y1="180" x2="1100" y2="220"/>
    <line x1="1100" y1="220" x2="1300" y2="170"/>
    <line x1="1300" y1="170" x2="1500" y2="230"/>
    <line x1="1500" y1="230" x2="1700" y2="190"/>
    <line x1="1700" y1="190" x2="1900" y2="240"/>
  </g>
  
  <!-- Elementos decorativos -->
  <g stroke="#fde68a" stroke-width="1" stroke-opacity="0.3">
    <path d="M0,400 Q480,300 960,500 T1920,400" fill="none"/>
    <path d="M0,500 Q480,400 960,600 T1920,500" fill="none"/>
  </g>
</svg> 