<?xml version="1.0" encoding="UTF-8"?>
<svg width="1920" height="800" viewBox="0 0 1920 800" xmlns="http://www.w3.org/2000/svg">
  <!-- Gradiente de fondo -->
  <defs>
    <linearGradient id="bgGradient" x1="0%" y1="0%" x2="100%" y2="100%">
      <stop offset="0%" style="stop-color:#fef3c7;stop-opacity:0.3"/>
      <stop offset="50%" style="stop-color:#fde68a;stop-opacity:0.4"/>
      <stop offset="100%" style="stop-color:#fcd34d;stop-opacity:0.3"/>
    </linearGradient>
  </defs>
  
  <!-- Fondo con gradiente -->
  <rect width="100%" height="100%" fill="url(#bgGradient)"/>
  
  <!-- Patrón de hexágonos -->
  <g fill="#fde68a" fill-opacity="0.3">
    <path d="M100,100 L150,100 L175,150 L150,200 L100,200 L75,150 Z"/>
    <path d="M300,150 L350,150 L375,200 L350,250 L300,250 L275,200 Z"/>
    <path d="M500,100 L550,100 L575,150 L550,200 L500,200 L475,150 Z"/>
    <path d="M700,150 L750,150 L775,200 L750,250 L700,250 L675,200 Z"/>
    <path d="M900,100 L950,100 L975,150 L950,200 L900,200 L875,150 Z"/>
    <path d="M1100,150 L1150,150 L1175,200 L1150,250 L1100,250 L1075,200 Z"/>
    <path d="M1300,100 L1350,100 L1375,150 L1350,200 L1300,200 L1275,150 Z"/>
    <path d="M1500,150 L1550,150 L1575,200 L1550,250 L1500,250 L1475,200 Z"/>
    <path d="M1700,100 L1750,100 L1775,150 L1750,200 L1700,200 L1675,150 Z"/>
  </g>
  
  <!-- Líneas de conexión -->
  <g stroke="#fbbf24" stroke-width="0.5" stroke-opacity="0.3">
    <line x1="125" y1="150" x2="325" y2="200"/>
    <line x1="325" y1="200" x2="525" y2="150"/>
    <line x1="525" y1="150" x2="725" y2="200"/>
    <line x1="725" y1="200" x2="925" y2="150"/>
    <line x1="925" y1="150" x2="1125" y2="200"/>
    <line x1="1125" y1="200" x2="1325" y2="150"/>
    <line x1="1325" y1="150" x2="1525" y2="200"/>
    <line x1="1525" y1="200" x2="1725" y2="150"/>
  </g>
  
  <!-- Elementos decorativos -->
  <g stroke="#fde68a" stroke-width="1" stroke-opacity="0.3">
    <circle cx="960" cy="400" r="200" fill="none"/>
    <circle cx="960" cy="400" r="150" fill="none"/>
    <circle cx="960" cy="400" r="100" fill="none"/>
  </g>
</svg> 